<svg xmlns="http://www.w3.org/2000/svg" width="1024" height="1024" viewBox="0 0 100 100">
  <defs>
    <linearGradient id="bgmain" x1="0" y1="0" x2="0.7" y2="1">
      <stop offset="0" stop-color="#f6f7f9"></stop><stop offset="1" stop-color="#dfe3e9"></stop>
    </linearGradient>
    <linearGradient id="glossg" x1="0" y1="0" x2="0" y2="1">
      <stop offset="0" stop-color="#ffffff" stop-opacity="0.4"></stop>
      <stop offset="0.42" stop-color="#ffffff" stop-opacity="0"></stop>
    </linearGradient>
    <linearGradient id="alu" x1="0" y1="0" x2="0" y2="1">
      <stop offset="0" stop-color="#f7f8fa"></stop><stop offset="1" stop-color="#c2c8d1"></stop>
    </linearGradient>
    <linearGradient id="alu2" x1="0" y1="0" x2="0" y2="1">
      <stop offset="0" stop-color="#dde1e7"></stop><stop offset="1" stop-color="#a9b0bb"></stop>
    </linearGradient>
    <linearGradient id="tealpanel" x1="0" y1="0" x2="0.4" y2="1">
      <stop offset="0" stop-color="#1fb6d8"></stop><stop offset="1" stop-color="#0f7e9b"></stop>
    </linearGradient>
    <radialGradient id="tealglow" cx="0.5" cy="0.36" r="0.75">
      <stop offset="0" stop-color="#2bd6f4"></stop><stop offset="1" stop-color="#0c5f76" stop-opacity="0"></stop>
    </radialGradient>
    <clipPath id="sq"><rect x="0" y="0" width="100" height="100" rx="23" ry="23"></rect></clipPath>
  </defs><g clip-path="url(#sq)"><rect width="100" height="100" fill="url(#bgmain)"></rect><g transform="translate(7.00,7.00) scale(3.58333)">
  <rect x="1.4" y="1.6" width="21.2" height="16" rx="2.9" fill="url(#alu)"></rect>
  <rect x="1.4" y="1.6" width="21.2" height="16" rx="2.9" fill="url(#tealpanel)" opacity="0.14"></rect>
  <rect x="2.9" y="3" width="18.2" height="11.4" rx="1.4" fill="#13161d"></rect>
  <rect x="3.7" y="3.7" width="16.6" height="10" rx="1" fill="url(#tealglow)" opacity="0.55"></rect>
  <rect x="3.7" y="3.7" width="16.6" height="3.2" rx="1" fill="#ffffff" opacity="0.07"></rect>
  <circle cx="12" cy="16" r="1.05" fill="#3ddc8e"></circle>
  <circle cx="12" cy="16" r="2" fill="#3ddc8e" opacity="0.22"></circle>
  <rect x="9.9" y="17.6" width="4.2" height="2.7" fill="url(#alu2)"></rect>
  <rect x="5.2" y="20" width="13.6" height="2.3" rx="1.15" fill="url(#alu2)"></rect>
</g><rect width="100" height="100" fill="url(#glossg)"></rect></g></svg>